<svg id="Layer_1" data-name="Layer 1" xmlns="http://www.w3.org/2000/svg" width="64" height="64" viewBox="0 0 64 64"><defs><style>.cls-1{fill:#1d1d1b;}.cls-2{fill:#c8db89;}.cls-3{fill:#8ec480;}.cls-4{fill:#fab900;}</style></defs><title>space-invader</title><g id="space-invader"><path class="cls-1" d="M12.53,30.15a14.49,14.49,0,0,1,.08-2.71c.17,0,3.17.08,3.17,0s-.21-4.25.17-4.46a40.55,40.55,0,0,1,4.58-.42l0-2.5s-3.87.17-3.92-.17-.62-5.42-.25-5.54,6-.37,6,.08.17,4.58.17,4.58,4-.33,4.17,0,.08,3.38.5,3.42,6.92.29,6.92,0a19.75,19.75,0,0,1,.21-3.54c.21-.17,4.92-.21,4.92-.21a26.34,26.34,0,0,1,.08-4c.21-.29,6.42-.33,6.42,0a47.73,47.73,0,0,1-.37,5.21c-.17,0-4.92.08-4.92.08l0,1.13s7.54.21,7.63.58-.21,5.54,0,5.54,3.75,0,3.79.38,0,3.5,0,3.5,4,.08,4.13.54-.29,13.21-.75,13.42a16.08,16.08,0,0,1-4.75-.17c-.12-.25,0-8.5-.21-8.58s-2.54,0-2.54,0,.25,9-.08,9.33-5.37.25-5.37.25.38,3.46.13,3.54-10.08.58-10.08.21-.08-5,.29-5.21,7.25-.21,7.21-.42,0-1.83-.12-1.87S24,42.36,24,42.61a6.18,6.18,0,0,0,0,1.79c.13,0,7.17.17,7.21.29a33.94,33.94,0,0,1,0,5,82.56,82.56,0,0,1-9.08,0c-.33-.21-.46-4.08-.46-4.08s-5.54-.58-5.58-.87,0-8.33-.17-8.46a3.68,3.68,0,0,0-1.67,0c0,.13.17,8,0,8.08s-6,.67-6,0S7.83,31,8.2,30.74A26.57,26.57,0,0,1,12.53,30.15Z"/><path class="cls-2" d="M10.12,32.32A13.56,13.56,0,0,1,12.58,32s.13,11,0,11-2.37.33-2.46,0S10,32.53,10.12,32.32Z"/><path class="cls-2" d="M14.58,29a1.51,1.51,0,0,1,1.13,0c0,.13.08,5.58,0,5.58s-1.08.21-1.12,0S14.45,29.11,14.58,29Z"/><path class="cls-2" d="M18.24,15.78c.18-.12,2.25-.12,2.33.13a7.79,7.79,0,0,1,0,2.42,22,22,0,0,1-2.33,0A6,6,0,0,1,18.24,15.78Z"/><path class="cls-2" d="M41.08,16a10.44,10.44,0,0,1,2.58.13,9.52,9.52,0,0,1-.08,2.21,12.48,12.48,0,0,1-2.5,0A21,21,0,0,1,41.08,16Z"/><path class="cls-3" d="M22.24,20.57s2.83-.33,2.83-.12a25.74,25.74,0,0,0,.29,3.71c.17,0,10.38-.08,10.42-.29s.21-3.25.33-3.37a7.14,7.14,0,0,1,2.5,0c0,.17-.12,2.42.08,2.46s7.17.25,7.25.42-.17,9.21-.17,9.21-1.54-1.67-1.67-1.5-.5.67-.33.75a14.75,14.75,0,0,1,2,2,11.88,11.88,0,0,1,0,1.67,22.41,22.41,0,0,0-2.46-2c-.08.13-.33.67-.21.79s2.67,2.5,2.67,2.67,0,1.46,0,1.46a30.4,30.4,0,0,0-2.54-1.79c-.12,0-.46.88-.29.92a15.15,15.15,0,0,1,2.79,1.79c0,.25.08,1.46.08,1.46S43.12,39,43,39s-.21.88-.21.88a25.91,25.91,0,0,1,3,2.17,10.21,10.21,0,0,1,0,1.25,18,18,0,0,0-2.58-1.62c-.12.13-.37.67-.17.75s1.88,1.42,1.71,1.46a12.36,12.36,0,0,1-2.75.08c0-.17,0-3.58-.17-3.62s-8.08-.21-9.92-.12-9.62.5-9.75.79.13,2.75,0,2.75a36.49,36.49,0,0,1-4.29-.33c-.12-.17-.5-18.75-.12-18.87s4.54-.25,4.54-.37S22.28,20.69,22.24,20.57Z"/><path class="cls-1" d="M21.62,27.65a21.25,21.25,0,0,1,5.71-.21,38.32,38.32,0,0,1,.13,5.75,37.55,37.55,0,0,1-5.71.13A43,43,0,0,1,21.62,27.65Z"/><path class="cls-4" d="M23.58,29.19a3.73,3.73,0,0,1,1.92,0c0,.13.29,2.17,0,2.29a4.57,4.57,0,0,1-2,.08A15,15,0,0,1,23.58,29.19Z"/><path class="cls-1" d="M35.28,27.28A21.25,21.25,0,0,1,41,27.07a38.32,38.32,0,0,1,.13,5.75,37.55,37.55,0,0,1-5.71.13A43,43,0,0,1,35.28,27.28Z"/><path class="cls-4" d="M37.24,28.82a3.73,3.73,0,0,1,1.92,0c0,.13.29,2.17,0,2.29a4.57,4.57,0,0,1-2,.08A15,15,0,0,1,37.24,28.82Z"/><path class="cls-1" d="M19,25.9c0,.25,1-.21,1,0s.21,4.08.08,4.17-1,.21-1,0S19,25.82,19,25.9Z"/><path class="cls-2" d="M48,28.65c.12-.12,2-.25,2,.08s0,5.79-.21,5.79a11.16,11.16,0,0,1-2.08-.08C47.66,34.32,47.87,28.74,48,28.65Z"/><path class="cls-2" d="M52.37,32.82c.2-.07,1.83-.12,1.88.08s-.54,10.42-.71,10.5a5.83,5.83,0,0,1-1.25,0S52.24,32.86,52.37,32.82Z"/><path class="cls-2" d="M23.83,45.94a42.72,42.72,0,0,1,5.71.13c0,.17,0,2.25,0,2.25l-5.71-.12A10.21,10.21,0,0,1,23.83,45.94Z"/><path class="cls-2" d="M34.12,46.15a54.17,54.17,0,0,1,6-.21c0,.17.17,1.83,0,1.92S34,48,34,48,34,46.19,34.12,46.15Z"/></g></svg>